<svg width="102" height="62" viewBox="0 0 102 62" fill="none" xmlns="http://www.w3.org/2000/svg">
<path fill-rule="evenodd" clip-rule="evenodd" d="M33.1044 0.128375C32.7828 0.449598 33.0046 1.65778 33.6212 2.94605C34.5886 4.96637 34.6865 5.43024 34.4258 6.75486C34.24 7.69867 34.2603 8.17078 34.5311 9.21603C34.7155 9.92737 34.8665 10.5669 34.8665 10.6372C34.8665 10.995 34.1552 10.6647 33.0416 9.79021C30.9654 8.15895 30.9576 8.15726 25.1396 8.05899C22.2903 8.0108 19.2293 7.95818 18.3376 7.94191C17.4457 7.92564 16.6451 7.98333 16.5586 8.06998C16.2943 8.33477 16.7766 9.10317 18.3274 10.8868C19.2079 11.8991 20.1747 13.3171 20.705 14.3738C21.1964 15.3531 21.9672 16.6183 22.4176 17.1857C23.0881 18.0302 23.2365 18.3855 23.2365 19.1473C23.2365 19.6589 23.3742 20.4066 23.5425 20.809C23.8354 21.5098 23.8286 21.5442 23.3839 21.6245C19.4475 22.3342 16.467 23.3194 16.4725 23.909C16.474 24.0607 16.9896 25.2076 17.6182 26.4577C18.2469 27.7077 18.8681 29.228 18.9986 29.8362C19.328 31.3713 19.6465 31.7654 21.001 32.3149L22.1793 32.7927V33.8496C22.1793 34.8456 22.152 34.8984 21.7035 34.7678C20.1772 34.3234 19.9939 34.3619 18.3029 35.4811C17.3996 36.0789 16.6017 36.7209 16.5301 36.9076C16.4584 37.0942 16.622 37.666 16.894 38.1783C17.3706 39.0762 17.6804 39.4283 19.166 40.7597C20.387 41.8542 20.2265 42.2043 17.0488 45.3737C14.4508 47.9646 13.7211 48.528 13.7211 47.943C13.7211 47.8177 14.1969 46.2651 14.7784 44.4928C15.7959 41.392 16.046 40.1403 15.6485 40.1403C15.2979 40.1403 14.7496 41.2246 13.4773 44.4352C12.1098 47.886 11.5197 49.0162 11.0853 49.0162C10.4795 49.0162 10.5089 48.2769 11.3019 43.5922C11.9557 39.7288 11.1845 39.821 10.1258 43.7329C9.48336 46.1059 9.04481 47.1142 8.65489 47.1142C8.54874 47.1142 7.81351 46.3824 7.02098 45.4878C3.29961 41.2874 2.30134 40.4131 2.30345 41.3554C2.30451 41.9057 2.93295 42.8394 4.77915 45.0347C8.35843 49.2907 8.71071 49.8615 7.75769 49.8615C7.43417 49.8615 6.27794 48.8173 3.96231 46.4341C2.1309 44.5493 0.573335 43.0659 0.501229 43.1382C0.284278 43.355 1.12354 44.7925 2.51363 46.5859C3.23448 47.5157 3.95892 48.5358 4.12364 48.8528C4.4626 49.5054 4.65524 49.4082 2.12181 49.8621C1.38299 49.9944 0.577564 50.177 0.332489 50.2677C-0.10522 50.4293 -0.105855 50.4365 0.301617 50.6529C0.833846 50.9357 8.07995 52.7267 10.0131 53.0532C10.9509 53.2115 12.5249 53.2553 14.3479 53.1733C20.0986 52.915 24.2995 51.4535 30.5626 47.5318C32.2546 46.4724 33.6902 45.6569 33.753 45.7196C33.8158 45.7822 33.2478 46.9625 32.4912 48.3422C30.8429 51.3478 30.715 51.7113 30.217 54.8121C29.9115 56.7143 29.8772 57.4185 30.0561 58.1228C30.3697 59.3572 31.5075 60.4329 33.0414 60.945L34.2736 61.356L34.6481 60.8598L35.0228 60.3636L36.0162 60.8441L37.0096 61.3249L37.711 60.5595C38.2487 59.9728 38.5788 59.7932 39.1241 59.7909C40.6772 59.7837 40.6931 59.1482 39.1827 57.4483C38.6695 56.8711 38.2498 56.2445 38.2498 56.0562C38.2498 55.0966 40.2036 51.7713 42.1155 49.4775C43.2959 48.0614 44.5378 45.9796 44.8177 44.9481C44.9359 44.5123 45.1478 44.1579 45.2888 44.1606C45.5145 44.1653 46.3713 44.3373 47.9238 44.6896C48.5708 44.8365 48.5351 45.2376 47.6461 47.7974C46.8792 50.0065 46.2852 52.7538 46.2861 54.0881C46.2867 55.1443 46.8982 55.992 48.2363 56.7912C49.815 57.7346 50.7803 57.876 51.584 57.2822C52.163 56.8542 52.2459 56.8453 52.8289 57.1467C53.7036 57.5987 53.8891 57.5563 54.1361 56.8479C54.2714 56.4599 54.5254 56.2018 54.8123 56.1604C55.4646 56.0666 55.3282 55.302 54.4131 53.9229C53.503 52.5509 53.3063 51.7432 53.7859 51.3455C54.0885 51.0946 54.2113 51.1373 54.7281 51.6743C55.0548 52.0139 56.1916 53.5889 57.2542 55.1746C58.7191 57.3606 59.2353 58.3181 59.3907 59.1368C59.6616 60.5646 60.0671 61.3004 60.8273 61.744C61.4283 62.0946 61.4678 62.0927 61.8313 61.6912C62.2834 61.192 62.9452 61.1607 63.974 61.5904C65.0238 62.0287 65.2947 61.9906 65.5303 61.3714C65.7214 60.8689 65.7988 60.8442 66.7711 60.9731L67.8078 61.1104L67.9624 60.1971L68.1168 59.2839L66.4283 57.6898C64.517 55.8853 64.2535 55.4508 63.2857 52.5095C62.3828 49.766 62.3792 49.7704 65.3118 49.9186C67.017 50.0048 68.4244 50.262 71.3423 51.0204C74.6769 51.8873 75.3449 51.9978 76.7343 51.9133C77.6066 51.8603 78.4877 51.7466 78.6926 51.661C79.0028 51.531 79.2202 51.8345 79.9977 53.4835C80.9457 55.4939 81.3863 57.2154 81.3863 58.9092V59.8486L82.6168 59.7095C83.6884 59.5884 83.8971 59.6256 84.2355 59.9993C84.722 60.5367 84.9958 60.5377 85.6731 60.0054C86.3193 59.4973 86.8408 59.4703 87.472 59.912C87.9164 60.2233 87.9537 60.2116 88.1467 59.7047C88.3191 59.2513 88.4466 59.1871 88.9663 59.2909C90.4408 59.5857 89.8312 58.2458 88.0281 57.2289C86.5733 56.4085 86.3373 56.0461 86.0512 54.1938C85.9256 53.3802 85.7653 52.4055 85.6951 52.0276C85.5442 51.2153 85.5702 51.2108 87.9824 51.6358C90.3496 52.0528 91.4619 51.7628 93.6807 50.15C95.3666 48.9245 96.0024 48.7516 98.2145 48.9173L100.172 49.0639L100.905 48.3315C102.735 46.5022 102.418 45.8424 98.8313 44.0148C97.7846 43.4814 96.6171 42.7732 96.2372 42.441C95.857 42.1088 95.3336 41.7937 95.0742 41.7407C94.149 41.552 91.2031 41.1819 90.2674 41.1369C89.3241 41.0917 89.3161 41.0847 89.3416 40.3516C89.3556 39.9448 89.4391 39.2569 89.5271 38.8233C89.6573 38.1819 89.6201 38.0088 89.3287 37.897C89.1315 37.8213 88.75 37.8771 88.481 38.021C88.2118 38.165 87.7917 38.2193 87.5472 38.1417C87.1745 38.0236 87.0273 38.1563 86.6342 38.9649C86.3764 39.4951 86.1011 39.9289 86.0227 39.9289C85.8605 39.9289 85.6154 38.8476 85.6154 38.132C85.6154 37.8704 85.7467 37.5472 85.907 37.4141C86.5839 36.8528 86.4578 34.6226 85.7144 34.0062C85.4439 33.7818 85.232 33.9155 84.3655 34.8576C83.1537 36.1751 83.0735 36.1176 82.6595 33.6345L82.403 32.0951L83.126 30.8819C84.182 29.1103 85.0265 26.8298 84.9447 25.9712C84.8791 25.2812 84.8349 25.2438 84.1352 25.2858C83.7282 25.3101 82.3639 25.7062 81.1036 26.1658L78.8123 27.0016L78.5135 26.2871C78.3492 25.894 78.0669 24.547 77.8863 23.2936C77.6231 21.4675 77.4651 20.9309 77.0904 20.5922C76.6396 20.1847 76.6257 20.0537 76.7016 16.9488C76.7697 14.1656 76.7352 13.711 76.4474 13.6005C76.2641 13.5303 75.088 13.8146 73.8336 14.2324C72.5793 14.6502 71.4888 14.9919 71.4106 14.9919C71.0733 14.9919 68.6991 11.5487 68.6991 11.0599C68.6991 10.7712 68.8547 9.91595 69.0448 9.15917C69.402 7.7384 69.2478 6.75 68.6689 6.75C68.5312 6.75 66.8876 7.08665 65.0168 7.49811C61.8932 8.18515 61.5682 8.30054 61.0383 8.91129C60.7209 9.2771 60.4236 9.53492 60.378 9.48399C60.3321 9.43327 60.1301 9.06851 59.9293 8.67375C59.7282 8.27898 59.0135 7.44676 58.341 6.8246L57.1184 5.69335L57.6223 3.96065C58.166 2.09206 58.2639 1.04407 57.8947 1.04407C57.6145 1.04407 55.6805 1.56268 54.1762 2.04113C53.0815 2.3894 53.0801 2.38919 52.2732 1.83445C50.3635 0.521027 49.6683 0.647615 49.6683 2.30846C49.6683 3.03291 49.5194 3.52911 49.1295 4.10308C48.8332 4.53948 48.5067 5.33726 48.4042 5.87615C47.9821 8.08963 47.6633 8.09238 46.9147 5.88904C46.6214 5.02597 46.3028 4.19459 46.2065 4.0418C46.1103 3.8888 45.3354 3.43359 44.4845 3.02995C43.2648 2.45132 42.8914 2.16349 42.7192 1.67003C42.4727 0.963131 42.1122 0.894872 41.178 1.37776C40.6722 1.63897 40.411 1.66158 39.9725 1.48131C39.6646 1.35473 38.6515 1.11022 37.7211 0.937561C36.7907 0.765115 35.5091 0.480663 34.8733 0.305681C33.5842 -0.0491439 33.3096 -0.0766163 33.1044 0.128375Z" fill="white"/>
</svg>
