<svg width="60" height="60" viewBox="0 0 60 60" fill="none" xmlns="http://www.w3.org/2000/svg">
<path d="M29.802 6C23.9105 6 18.2545 8.35664 14.0126 12.1273L13.5412 8.35664C13.5412 6.94266 12.3629 6 10.9489 6.23566C9.53496 6.23566 8.5923 7.41398 8.82797 8.82797L9.29929 15.1909C9.53496 18.2545 12.1273 20.6112 15.1909 20.6112H15.6622L22.0251 20.1398C23.4391 20.1398 24.3818 18.9615 24.1461 17.5475C24.1461 16.1335 22.9678 15.1909 21.5538 15.4266L16.8405 15.6622C20.3755 12.5986 24.8531 10.7133 29.5664 10.7133C39.9356 10.7133 48.4195 19.1972 48.4195 29.5664C48.4195 39.9356 39.9356 48.4195 29.5664 48.4195C19.1972 48.4195 10.7133 39.9356 10.7133 29.5664C10.7133 28.1524 9.77062 27.2097 8.35664 27.2097C6.94266 27.2097 6 28.1524 6 29.5664C6 42.5279 16.6049 53.1328 29.5664 53.1328C42.5279 53.1328 53.1328 42.5279 53.1328 29.5664C53.3684 16.6049 42.7636 6 29.802 6Z" fill="white"/>
</svg>
