<svg width="50" height="50" viewBox="0 0 50 50" fill="none" xmlns="http://www.w3.org/2000/svg">
<path d="M49.2438 20.2562L44.3969 19C44.025 17.7937 43.5469 16.6281 42.9656 15.525L45.5 11.2156C45.7344 10.8187 45.6687 10.3156 45.3469 9.99063L40.0156 4.65625C39.6875 4.33125 39.1844 4.26875 38.7875 4.5L34.475 7.03437C33.375 6.45625 32.2125 5.97812 31.0031 5.60312L29.75 0.753125C29.6344 0.309375 29.2312 0 28.7719 0H21.2313C20.775 0 20.3719 0.309375 20.2562 0.753125L18.9969 5.60312C17.7906 5.97812 16.6281 6.45625 15.5312 7.0375L11.2187 4.49688C10.8187 4.26563 10.3125 4.325 9.99375 4.65312L4.65625 9.9875C4.33125 10.3125 4.26562 10.8156 4.50312 11.2094L7.04063 15.525C6.45938 16.6219 5.98438 17.7844 5.60625 18.9906L0.75625 20.25C0.309375 20.3656 0 20.7688 0 21.2281V28.7688C0 29.2281 0.309375 29.6312 0.75625 29.7437L5.60312 31C5.97812 32.2125 6.45937 33.375 7.03437 34.4687L4.49375 38.7812C4.2625 39.1781 4.325 39.6813 4.65 40.0063L9.98125 45.3406C10.3094 45.6656 10.8125 45.7281 11.2094 45.4937L15.5219 42.9563C16.6219 43.5344 17.7844 44.0188 18.9906 44.3875L20.2438 49.2375C20.3656 49.6875 20.7688 50 21.2281 50H28.7688C29.2281 50 29.6281 49.6906 29.7437 49.2438L31.0031 44.3938C32.2125 44.0188 33.375 43.5406 34.475 42.9625L38.7812 45.5C39.1812 45.7281 39.6813 45.6688 40.0063 45.3438L45.3406 40.0156C45.6687 39.6906 45.7313 39.1875 45.4969 38.7906L42.9594 34.4781C43.5437 33.3781 44.0219 32.2156 44.3938 31.0094L49.2406 29.7531C49.6906 29.6344 50 29.2312 50 28.7719V21.2313C50 20.775 49.6906 20.3687 49.2438 20.2562ZM25.0031 36.0656C18.9 36.0656 13.9375 31.1031 13.9375 25C13.9375 18.8969 18.9 13.9344 25.0031 13.9344C31.1031 13.9344 36.0625 18.8969 36.0625 25C36.0625 31.1031 31.1 36.0656 25.0031 36.0656Z" fill="white"/>
</svg>
