<svg width="60" height="60" viewBox="0 0 60 60" fill="none" xmlns="http://www.w3.org/2000/svg">
<path d="M3.06339 51.1169C2.4648 51.1169 2.1655 51.1169 1.56691 50.8157C0.669026 50.2133 0.0704346 49.3097 0.0704346 48.1049V11.9607C0.0704346 10.7559 0.669026 9.85228 1.56691 9.24987C2.4648 8.64747 3.66198 8.64747 4.55987 9.24987L31.4965 27.322C32.3944 27.9244 32.6937 28.828 32.6937 29.7316C32.6937 30.6352 32.0951 31.5388 31.4965 32.1412L4.55987 50.2133C4.26057 50.8157 3.66198 51.1169 3.06339 51.1169ZM6.05635 17.6835V42.6833L24.6127 30.334L6.05635 17.6835Z" fill="white"/>
<path d="M30 51.1169C29.4014 51.1169 29.1021 51.1169 28.5035 50.8157C27.6056 50.2133 27.007 49.3097 27.007 48.1049V11.9607C27.007 10.7559 27.6056 9.85228 28.5035 9.24987C29.4014 8.64747 30.5986 8.64747 31.4965 9.24987L58.4331 27.322C59.331 27.9244 59.6303 28.828 59.6303 29.7316C59.6303 30.6352 59.0317 31.5388 58.4331 32.1412L31.4965 50.2133C31.1972 50.8157 30.5986 51.1169 30 51.1169ZM32.993 17.6835V42.6833L51.5493 30.334L32.993 17.6835Z" fill="white"/>
</svg>
